<svg xmlns="http://www.w3.org/2000/svg" width="1200" height="630" viewBox="0 0 1200 630" role="img">
  <defs>
    <linearGradient id="bg" x1="0" y1="0" x2="1" y2="1">
      <stop offset="0" stop-color="#f7fafc"/><stop offset="1" stop-color="#e8f0f6"/>
    </linearGradient>
    <filter id="sh" x="-20%" y="-20%" width="140%" height="140%">
      <feDropShadow dx="0" dy="6" stdDeviation="14" flood-color="#1a2333" flood-opacity="0.10"/>
    </filter>
  </defs>
  <rect width="1200" height="630" fill="url(#bg)"/>
  <rect x="0" y="0" width="10" height="630" fill="#1D6FA3"/>
  <!-- category pill -->
  <rect x="72" y="70" rx="20" ry="20" width="225" height="40" fill="#eef4f8"/>
  <text x="184.5" y="96" text-anchor="middle" font-family="'Segoe UI', system-ui, -apple-system, Helvetica, Arial, sans-serif" font-size="18" font-weight="800" letter-spacing="1.5" fill="#1D6FA3">CONVERSION OPT.</text>
  <text x="72" y="176" font-family="'Segoe UI', system-ui, -apple-system, Helvetica, Arial, sans-serif" font-size="46" font-weight="800" fill="#1a2333" letter-spacing="-0.5">Signal vs.</text><text x="72" y="234" font-family="'Segoe UI', system-ui, -apple-system, Helvetica, Arial, sans-serif" font-size="46" font-weight="800" fill="#1a2333" letter-spacing="-0.5">noise</text>
  <!-- wordmark -->
  <text x="72" y="540" font-family="'Segoe UI', system-ui, -apple-system, Helvetica, Arial, sans-serif" font-size="26" font-weight="800" fill="#1a2333" letter-spacing="-0.3">Lindsey Sobrinski</text>
  <text x="72" y="568" font-family="'Segoe UI', system-ui, -apple-system, Helvetica, Arial, sans-serif" font-size="17" font-weight="600" fill="#51607a">Growth that survives the measurement.</text>
  <line x1="600" y1="470" x2="1090" y2="470" stroke="#dde7ee" stroke-width="3"/><line x1="600" y1="150" x2="600" y2="470" stroke="#dde7ee" stroke-width="3"/><line x1="600" y1="250" x2="1090" y2="250" stroke="#51607a" stroke-width="2" stroke-dasharray="8 6" opacity="0.7"/><text x="1084" y="242" text-anchor="end" font-family="'Segoe UI', system-ui, -apple-system, Helvetica, Arial, sans-serif" font-size="15" font-weight="700" fill="#51607a">p &lt; .05</text><polyline points="600,382 610,378 620,406 630,420 640,365 650,341 660,354 670,360 680,433 690,423 700,360 710,377 720,333 730,368 740,416 750,362 760,412 770,395 780,357 790,391 800,327 810,363 820,425 830,399 840,416 850,358 860,318 870,374 880,392 890,408 900,410 910,368 920,359 930,379 940,357 950,370 960,404 970,387 980,419 990,380 1000,316 1010,370 1020,367 1030,413 1040,445 1050,348 1060,365 1070,356 1080,348 1090,423" fill="none" stroke="#51607a" stroke-width="2" opacity="0.45"/><path d="M600 400 C 760 395, 840 330, 960 270 C 1010 245, 1050 232, 1080 226" fill="none" stroke="#1D6FA3" stroke-width="5" stroke-linecap="round"/><circle cx="988" cy="256" r="11" fill="#1D6FA3"/><circle cx="988" cy="256" r="19" fill="none" stroke="#1D6FA3" stroke-width="2" opacity="0.4"/>
</svg>