<svg xmlns="http://www.w3.org/2000/svg" width="1200" height="630" viewBox="0 0 1200 630" role="img">
  <defs>
    <linearGradient id="bg" x1="0" y1="0" x2="1" y2="1">
      <stop offset="0" stop-color="#f7fafc"/><stop offset="1" stop-color="#e8f0f6"/>
    </linearGradient>
    <filter id="sh" x="-20%" y="-20%" width="140%" height="140%">
      <feDropShadow dx="0" dy="6" stdDeviation="14" flood-color="#1a2333" flood-opacity="0.10"/>
    </filter>
  </defs>
  <rect width="1200" height="630" fill="url(#bg)"/>
  <rect x="0" y="0" width="10" height="630" fill="#1D6FA3"/>
  <!-- category pill -->
  <rect x="72" y="70" rx="20" ry="20" width="69" height="40" fill="#eef4f8"/>
  <text x="106.5" y="96" text-anchor="middle" font-family="'Segoe UI', system-ui, -apple-system, Helvetica, Arial, sans-serif" font-size="18" font-weight="800" letter-spacing="1.5" fill="#1D6FA3">SEO</text>
  <text x="72" y="176" font-family="'Segoe UI', system-ui, -apple-system, Helvetica, Arial, sans-serif" font-size="46" font-weight="800" fill="#1a2333" letter-spacing="-0.5">Entities,</text><text x="72" y="234" font-family="'Segoe UI', system-ui, -apple-system, Helvetica, Arial, sans-serif" font-size="46" font-weight="800" fill="#1a2333" letter-spacing="-0.5">not keywords</text>
  <!-- wordmark -->
  <text x="72" y="540" font-family="'Segoe UI', system-ui, -apple-system, Helvetica, Arial, sans-serif" font-size="26" font-weight="800" fill="#1a2333" letter-spacing="-0.3">Lindsey Sobrinski</text>
  <text x="72" y="568" font-family="'Segoe UI', system-ui, -apple-system, Helvetica, Arial, sans-serif" font-size="17" font-weight="600" fill="#51607a">Growth that survives the measurement.</text>
  <line x1="850" y1="300" x2="690" y2="200" stroke="#1D6FA3" stroke-width="3" opacity="0.55"/><line x1="850" y1="300" x2="1010" y2="210" stroke="#1D6FA3" stroke-width="3" opacity="0.55"/><line x1="850" y1="300" x2="660" y2="360" stroke="#1D6FA3" stroke-width="3" opacity="0.55"/><line x1="850" y1="300" x2="1030" y2="380" stroke="#1D6FA3" stroke-width="3" opacity="0.55"/><line x1="850" y1="300" x2="840" y2="470" stroke="#1D6FA3" stroke-width="3" opacity="0.55"/><line x1="690" y1="200" x2="840" y2="470" stroke="#1D6FA3" stroke-width="2" opacity="0.28"/><line x1="1010" y1="210" x2="1030" y2="380" stroke="#1D6FA3" stroke-width="2" opacity="0.28"/><circle cx="690" cy="200" r="18" fill="#ffffff" stroke="#1D6FA3" stroke-width="3"/><circle cx="1010" cy="210" r="18" fill="#ffffff" stroke="#1D6FA3" stroke-width="3"/><circle cx="660" cy="360" r="18" fill="#ffffff" stroke="#1D6FA3" stroke-width="3"/><circle cx="1030" cy="380" r="18" fill="#ffffff" stroke="#1D6FA3" stroke-width="3"/><circle cx="840" cy="470" r="18" fill="#ffffff" stroke="#1D6FA3" stroke-width="3"/><circle cx="850" cy="300" r="30" fill="#1D6FA3"/><circle cx="850" cy="300" r="30" fill="none" stroke="#ffffff" stroke-width="3" opacity="0.5"/><circle cx="1090" cy="120" r="7" fill="#dde7ee"/><circle cx="1120" cy="175" r="7" fill="#dde7ee"/><circle cx="1075" cy="235" r="7" fill="#dde7ee"/>
</svg>