<svg xmlns="http://www.w3.org/2000/svg" width="1200" height="630" viewBox="0 0 1200 630" role="img">
  <defs>
    <linearGradient id="bg" x1="0" y1="0" x2="1" y2="1">
      <stop offset="0" stop-color="#f7fafc"/><stop offset="1" stop-color="#e8f0f6"/>
    </linearGradient>
    <filter id="sh" x="-20%" y="-20%" width="140%" height="140%">
      <feDropShadow dx="0" dy="6" stdDeviation="14" flood-color="#1a2333" flood-opacity="0.10"/>
    </filter>
  </defs>
  <rect width="1200" height="630" fill="url(#bg)"/>
  <rect x="0" y="0" width="10" height="630" fill="#7a5ea8"/>
  <!-- category pill -->
  <rect x="72" y="70" rx="20" ry="20" width="69" height="40" fill="#eef4f8"/>
  <text x="106.5" y="96" text-anchor="middle" font-family="'Segoe UI', system-ui, -apple-system, Helvetica, Arial, sans-serif" font-size="18" font-weight="800" letter-spacing="1.5" fill="#7a5ea8">GEO</text>
  <text x="72" y="176" font-family="'Segoe UI', system-ui, -apple-system, Helvetica, Arial, sans-serif" font-size="46" font-weight="800" fill="#1a2333" letter-spacing="-0.5">One play</text><text x="72" y="234" font-family="'Segoe UI', system-ui, -apple-system, Helvetica, Arial, sans-serif" font-size="46" font-weight="800" fill="#1a2333" letter-spacing="-0.5">per engine</text>
  <!-- wordmark -->
  <text x="72" y="540" font-family="'Segoe UI', system-ui, -apple-system, Helvetica, Arial, sans-serif" font-size="26" font-weight="800" fill="#1a2333" letter-spacing="-0.3">Lindsey Sobrinski</text>
  <text x="72" y="568" font-family="'Segoe UI', system-ui, -apple-system, Helvetica, Arial, sans-serif" font-size="17" font-weight="600" fill="#51607a">Growth that survives the measurement.</text>
  <rect x="600" y="150" rx="14" width="150" height="120" fill="#ffffff" stroke="#7a5ea8" stroke-width="3" filter="url(#sh)"/><rect x="641" y="185" rx="12" width="68" height="46" fill="none" stroke="#7a5ea8" stroke-width="3"/><path d="M661 231 l0 16 l16 -16 z" fill="#7a5ea8"/><line x1="675" y1="272" x2="830" y2="444" stroke="#7a5ea8" stroke-width="2.5" opacity="0.5" stroke-dasharray="2 6" stroke-linecap="round"/><rect x="790" y="150" rx="14" width="150" height="120" fill="#ffffff" stroke="#7a5ea8" stroke-width="3" filter="url(#sh)"/><path d="M865 182 l8 22 l22 8 l-22 8 l-8 22 l-8 -22 l-22 -8 l22 -8 z" fill="#7a5ea8"/><line x1="865" y1="272" x2="830" y2="444" stroke="#7a5ea8" stroke-width="2.5" opacity="0.5" stroke-dasharray="2 6" stroke-linecap="round"/><rect x="980" y="150" rx="14" width="150" height="120" fill="#ffffff" stroke="#7a5ea8" stroke-width="3" filter="url(#sh)"/><circle cx="1049" cy="204" r="20" fill="none" stroke="#7a5ea8" stroke-width="3"/><line x1="1064" y1="219" x2="1079" y2="234" stroke="#7a5ea8" stroke-width="4" stroke-linecap="round"/><line x1="1055" y1="272" x2="830" y2="444" stroke="#7a5ea8" stroke-width="2.5" opacity="0.5" stroke-dasharray="2 6" stroke-linecap="round"/><circle cx="830" cy="470" r="26" fill="#7a5ea8"/><text x="830" y="512" text-anchor="middle" font-family="'Segoe UI', system-ui, -apple-system, Helvetica, Arial, sans-serif" font-size="16" font-weight="700" fill="#51607a">your source</text>
</svg>