<svg xmlns="http://www.w3.org/2000/svg" width="1200" height="630" viewBox="0 0 1200 630" role="img">
  <defs>
    <linearGradient id="bg" x1="0" y1="0" x2="1" y2="1">
      <stop offset="0" stop-color="#f7fafc"/><stop offset="1" stop-color="#e8f0f6"/>
    </linearGradient>
    <filter id="sh" x="-20%" y="-20%" width="140%" height="140%">
      <feDropShadow dx="0" dy="6" stdDeviation="14" flood-color="#1a2333" flood-opacity="0.10"/>
    </filter>
  </defs>
  <rect width="1200" height="630" fill="url(#bg)"/>
  <rect x="0" y="0" width="10" height="630" fill="#1e8e5a"/>
  <!-- category pill -->
  <rect x="72" y="70" rx="20" ry="20" width="160" height="40" fill="#eef4f8"/>
  <text x="152.0" y="96" text-anchor="middle" font-family="'Segoe UI', system-ui, -apple-system, Helvetica, Arial, sans-serif" font-size="18" font-weight="800" letter-spacing="1.5" fill="#1e8e5a">PAID MEDIA</text>
  <text x="72" y="176" font-family="'Segoe UI', system-ui, -apple-system, Helvetica, Arial, sans-serif" font-size="46" font-weight="800" fill="#1a2333" letter-spacing="-0.5">Reported</text><text x="72" y="234" font-family="'Segoe UI', system-ui, -apple-system, Helvetica, Arial, sans-serif" font-size="46" font-weight="800" fill="#1a2333" letter-spacing="-0.5">vs. real</text>
  <!-- wordmark -->
  <text x="72" y="540" font-family="'Segoe UI', system-ui, -apple-system, Helvetica, Arial, sans-serif" font-size="26" font-weight="800" fill="#1a2333" letter-spacing="-0.3">Lindsey Sobrinski</text>
  <text x="72" y="568" font-family="'Segoe UI', system-ui, -apple-system, Helvetica, Arial, sans-serif" font-size="17" font-weight="600" fill="#51607a">Growth that survives the measurement.</text>
  <line x1="600" y1="470" x2="1090" y2="470" stroke="#dde7ee" stroke-width="3"/><line x1="700" y1="200" x2="1030" y2="200" stroke="#51607a" stroke-width="2" stroke-dasharray="7 7" opacity="0.6"/><rect x="700" y="200" width="90" height="270" rx="4" fill="#1e8e5a"/><rect x="880" y="360" width="90" height="110" rx="4" fill="#ffffff" stroke="#1e8e5a" stroke-width="3"/><line x1="1010" y1="200" x2="1010" y2="360" stroke="#c0392b" stroke-width="2.5" stroke-dasharray="4 5"/><path d="M1004 214 l6 -16 l6 16 z" fill="#c0392b"/><path d="M1004 346 l6 16 l6 -16 z" fill="#c0392b"/><text x="1024" y="285" font-family="'Segoe UI', system-ui, -apple-system, Helvetica, Arial, sans-serif" font-size="15" font-weight="700" fill="#c0392b">overstated</text><text x="745" y="500" text-anchor="middle" font-family="'Segoe UI', system-ui, -apple-system, Helvetica, Arial, sans-serif" font-size="15" font-weight="700" fill="#51607a">reported</text><text x="925" y="500" text-anchor="middle" font-family="'Segoe UI', system-ui, -apple-system, Helvetica, Arial, sans-serif" font-size="15" font-weight="700" fill="#51607a">actual</text>
</svg>