<svg xmlns="http://www.w3.org/2000/svg" width="1200" height="630" viewBox="0 0 1200 630" role="img">
  <defs>
    <linearGradient id="bg" x1="0" y1="0" x2="1" y2="1">
      <stop offset="0" stop-color="#f7fafc"/><stop offset="1" stop-color="#e8f0f6"/>
    </linearGradient>
    <filter id="sh" x="-20%" y="-20%" width="140%" height="140%">
      <feDropShadow dx="0" dy="6" stdDeviation="14" flood-color="#1a2333" flood-opacity="0.10"/>
    </filter>
  </defs>
  <rect width="1200" height="630" fill="url(#bg)"/>
  <rect x="0" y="0" width="10" height="630" fill="#1e8e5a"/>
  <!-- category pill -->
  <rect x="72" y="70" rx="20" ry="20" width="199" height="40" fill="#eef4f8"/>
  <text x="171.5" y="96" text-anchor="middle" font-family="'Segoe UI', system-ui, -apple-system, Helvetica, Arial, sans-serif" font-size="18" font-weight="800" letter-spacing="1.5" fill="#1e8e5a">SUBSCRIPTIONS</text>
  <text x="72" y="176" font-family="'Segoe UI', system-ui, -apple-system, Helvetica, Arial, sans-serif" font-size="46" font-weight="800" fill="#1a2333" letter-spacing="-0.5">Cohort</text><text x="72" y="234" font-family="'Segoe UI', system-ui, -apple-system, Helvetica, Arial, sans-serif" font-size="46" font-weight="800" fill="#1a2333" letter-spacing="-0.5">truth</text>
  <!-- wordmark -->
  <text x="72" y="540" font-family="'Segoe UI', system-ui, -apple-system, Helvetica, Arial, sans-serif" font-size="26" font-weight="800" fill="#1a2333" letter-spacing="-0.3">Lindsey Sobrinski</text>
  <text x="72" y="568" font-family="'Segoe UI', system-ui, -apple-system, Helvetica, Arial, sans-serif" font-size="17" font-weight="600" fill="#51607a">Growth that survives the measurement.</text>
  <line x1="600" y1="470" x2="1090" y2="470" stroke="#dde7ee" stroke-width="3"/><line x1="600" y1="150" x2="600" y2="470" stroke="#dde7ee" stroke-width="3"/><line x1="600" y1="300" x2="1090" y2="300" stroke="#51607a" stroke-width="2" stroke-dasharray="3 7" opacity="0.6"/><path d="M600 170 C 700 250, 760 292, 900 299 C 980 302, 1030 300, 1080 300" fill="none" stroke="#1e8e5a" stroke-width="5" stroke-linecap="round"/><path d="M600 170 C 720 300, 820 420, 960 452 C 1010 462, 1050 466, 1080 468" fill="none" stroke="#1e8e5a" stroke-width="4" stroke-dasharray="9 8" opacity="0.75" stroke-linecap="round"/><text x="1084" y="294" font-family="'Segoe UI', system-ui, -apple-system, Helvetica, Arial, sans-serif" font-size="15" font-weight="700" fill="#1e8e5a">plateau</text><text x="980" y="500" text-anchor="middle" font-family="'Segoe UI', system-ui, -apple-system, Helvetica, Arial, sans-serif" font-size="15" font-weight="700" fill="#51607a">decays to zero</text><text x="628" y="175" font-family="'Segoe UI', system-ui, -apple-system, Helvetica, Arial, sans-serif" font-size="16" font-weight="700" fill="#51607a">% retained</text>
</svg>