<svg xmlns="http://www.w3.org/2000/svg" width="1200" height="630" viewBox="0 0 1200 630" role="img">
  <defs>
    <linearGradient id="bg" x1="0" y1="0" x2="1" y2="1">
      <stop offset="0" stop-color="#f7fafc"/><stop offset="1" stop-color="#e8f0f6"/>
    </linearGradient>
    <filter id="sh" x="-20%" y="-20%" width="140%" height="140%">
      <feDropShadow dx="0" dy="6" stdDeviation="14" flood-color="#1a2333" flood-opacity="0.10"/>
    </filter>
  </defs>
  <rect width="1200" height="630" fill="url(#bg)"/>
  <rect x="0" y="0" width="10" height="630" fill="#7a5ea8"/>
  <!-- category pill -->
  <rect x="72" y="70" rx="20" ry="20" width="186" height="40" fill="#eef4f8"/>
  <text x="165.0" y="96" text-anchor="middle" font-family="'Segoe UI', system-ui, -apple-system, Helvetica, Arial, sans-serif" font-size="18" font-weight="800" letter-spacing="1.5" fill="#7a5ea8">USER JOURNEY</text>
  <text x="72" y="176" font-family="'Segoe UI', system-ui, -apple-system, Helvetica, Arial, sans-serif" font-size="46" font-weight="800" fill="#1a2333" letter-spacing="-0.5">The real</text><text x="72" y="234" font-family="'Segoe UI', system-ui, -apple-system, Helvetica, Arial, sans-serif" font-size="46" font-weight="800" fill="#1a2333" letter-spacing="-0.5">path</text>
  <!-- wordmark -->
  <text x="72" y="540" font-family="'Segoe UI', system-ui, -apple-system, Helvetica, Arial, sans-serif" font-size="26" font-weight="800" fill="#1a2333" letter-spacing="-0.3">Lindsey Sobrinski</text>
  <text x="72" y="568" font-family="'Segoe UI', system-ui, -apple-system, Helvetica, Arial, sans-serif" font-size="17" font-weight="600" fill="#51607a">Growth that survives the measurement.</text>
  <path d="M610 175 L1080 175 L980 300 L980 470 L710 470 L710 300 Z" fill="none" stroke="#dde7ee" stroke-width="3"/><path d="M620 210 C 720 210, 720 300, 820 300 C 930 300, 900 200, 1000 220 C 1060 232, 1050 330, 980 350 C 900 372, 860 430, 780 440" fill="none" stroke="#7a5ea8" stroke-width="4.5" stroke-linecap="round"/><circle cx="620" cy="210" r="11" fill="#ffffff" stroke="#7a5ea8" stroke-width="4"/><circle cx="820" cy="300" r="11" fill="#ffffff" stroke="#7a5ea8" stroke-width="4"/><circle cx="1000" cy="220" r="11" fill="#ffffff" stroke="#7a5ea8" stroke-width="4"/><circle cx="980" cy="350" r="11" fill="#ffffff" stroke="#7a5ea8" stroke-width="4"/><line x1="780" y1="452" x2="780" y2="512" stroke="#c0392b" stroke-width="4" stroke-dasharray="4 6" stroke-linecap="round"/><path d="M770 500 l10 20 l10 -20 z" fill="#c0392b"/><circle cx="780" cy="440" r="12" fill="#c0392b"/><text x="820" y="512" font-family="'Segoe UI', system-ui, -apple-system, Helvetica, Arial, sans-serif" font-size="16" font-weight="700" fill="#51607a">intent leaks here</text>
</svg>