<svg xmlns="http://www.w3.org/2000/svg" width="1200" height="630" viewBox="0 0 1200 630" role="img">
  <defs>
    <linearGradient id="bg" x1="0" y1="0" x2="1" y2="1">
      <stop offset="0" stop-color="#f7fafc"/><stop offset="1" stop-color="#e8f0f6"/>
    </linearGradient>
    <filter id="sh" x="-20%" y="-20%" width="140%" height="140%">
      <feDropShadow dx="0" dy="6" stdDeviation="14" flood-color="#1a2333" flood-opacity="0.10"/>
    </filter>
  </defs>
  <rect width="1200" height="630" fill="url(#bg)"/>
  <rect x="0" y="0" width="10" height="630" fill="#1D6FA3"/>
  <!-- category pill -->
  <rect x="72" y="70" rx="20" ry="20" width="69" height="40" fill="#eef4f8"/>
  <text x="106.5" y="96" text-anchor="middle" font-family="'Segoe UI', system-ui, -apple-system, Helvetica, Arial, sans-serif" font-size="18" font-weight="800" letter-spacing="1.5" fill="#1D6FA3">AEO</text>
  <text x="72" y="176" font-family="'Segoe UI', system-ui, -apple-system, Helvetica, Arial, sans-serif" font-size="46" font-weight="800" fill="#1a2333" letter-spacing="-0.5">The</text><text x="72" y="234" font-family="'Segoe UI', system-ui, -apple-system, Helvetica, Arial, sans-serif" font-size="46" font-weight="800" fill="#1a2333" letter-spacing="-0.5">zero-click</text><text x="72" y="292" font-family="'Segoe UI', system-ui, -apple-system, Helvetica, Arial, sans-serif" font-size="46" font-weight="800" fill="#1a2333" letter-spacing="-0.5">answer</text>
  <!-- wordmark -->
  <text x="72" y="540" font-family="'Segoe UI', system-ui, -apple-system, Helvetica, Arial, sans-serif" font-size="26" font-weight="800" fill="#1a2333" letter-spacing="-0.3">Lindsey Sobrinski</text>
  <text x="72" y="568" font-family="'Segoe UI', system-ui, -apple-system, Helvetica, Arial, sans-serif" font-size="17" font-weight="600" fill="#51607a">Growth that survives the measurement.</text>
  <rect x="600" y="150" rx="16" width="470" height="150" fill="#ffffff" stroke="#1D6FA3" stroke-width="3" filter="url(#sh)"/><rect x="628" y="182" rx="6" width="300" height="18" fill="#1D6FA3"/><rect x="628" y="216" rx="5" width="414" height="12" fill="#eef4f8"/><rect x="628" y="240" rx="5" width="360" height="12" fill="#eef4f8"/><rect x="628" y="264" rx="5" width="300" height="12" fill="#eef4f8"/><path d="M955 250 l0 34 l9 -9 l7 15 l7 -3 l-7 -15 l12 0 z" fill="#1a2333"/><rect x="600" y="350" rx="4" width="360" height="10" fill="#51607a" opacity="0.3"/><rect x="600" y="368" rx="4" width="270" height="7" fill="#51607a" opacity="0.21"/><rect x="600" y="402" rx="4" width="320" height="10" fill="#51607a" opacity="0.22"/><rect x="600" y="420" rx="4" width="230" height="7" fill="#51607a" opacity="0.154"/><rect x="600" y="454" rx="4" width="280" height="10" fill="#51607a" opacity="0.16"/><rect x="600" y="472" rx="4" width="190" height="7" fill="#51607a" opacity="0.11199999999999999"/><rect x="600" y="506" rx="4" width="300" height="10" fill="#51607a" opacity="0.12"/><rect x="600" y="524" rx="4" width="210" height="7" fill="#51607a" opacity="0.08399999999999999"/>
</svg>