<svg xmlns="http://www.w3.org/2000/svg" width="1200" height="630" viewBox="0 0 1200 630" role="img">
  <defs>
    <linearGradient id="bg" x1="0" y1="0" x2="1" y2="1">
      <stop offset="0" stop-color="#f7fafc"/><stop offset="1" stop-color="#e8f0f6"/>
    </linearGradient>
    <filter id="sh" x="-20%" y="-20%" width="140%" height="140%">
      <feDropShadow dx="0" dy="6" stdDeviation="14" flood-color="#1a2333" flood-opacity="0.10"/>
    </filter>
  </defs>
  <rect width="1200" height="630" fill="url(#bg)"/>
  <rect x="0" y="0" width="10" height="630" fill="#1e8e5a"/>
  <!-- category pill -->
  <rect x="72" y="70" rx="20" ry="20" width="147" height="40" fill="#eef4f8"/>
  <text x="145.5" y="96" text-anchor="middle" font-family="'Segoe UI', system-ui, -apple-system, Helvetica, Arial, sans-serif" font-size="18" font-weight="800" letter-spacing="1.5" fill="#1e8e5a">LIFECYCLE</text>
  <text x="72" y="176" font-family="'Segoe UI', system-ui, -apple-system, Helvetica, Arial, sans-serif" font-size="46" font-weight="800" fill="#1a2333" letter-spacing="-0.5">The silent</text><text x="72" y="234" font-family="'Segoe UI', system-ui, -apple-system, Helvetica, Arial, sans-serif" font-size="46" font-weight="800" fill="#1a2333" letter-spacing="-0.5">leak</text>
  <!-- wordmark -->
  <text x="72" y="540" font-family="'Segoe UI', system-ui, -apple-system, Helvetica, Arial, sans-serif" font-size="26" font-weight="800" fill="#1a2333" letter-spacing="-0.3">Lindsey Sobrinski</text>
  <text x="72" y="568" font-family="'Segoe UI', system-ui, -apple-system, Helvetica, Arial, sans-serif" font-size="17" font-weight="600" fill="#51607a">Growth that survives the measurement.</text>
  <rect x="640" y="200" rx="18" width="330" height="200" fill="#ffffff" stroke="#1e8e5a" stroke-width="3.5" filter="url(#sh)"/><rect x="640" y="232" width="330" height="34" fill="#1e8e5a" opacity="0.18"/><rect x="672" y="300" rx="6" width="46" height="34" fill="#1e8e5a" opacity="0.35"/><rect x="672" y="352" rx="4" width="240" height="12" fill="#eef4f8"/><circle cx="966" cy="206" r="34" fill="#c0392b"/><line x1="953" y1="193" x2="979" y2="219" stroke="#ffffff" stroke-width="5" stroke-linecap="round"/><line x1="979" y1="193" x2="953" y2="219" stroke="#ffffff" stroke-width="5" stroke-linecap="round"/><path d="M700 470 a58 58 0 1 1 82 8" fill="none" stroke="#1e8e5a" stroke-width="4" stroke-linecap="round"/><path d="M782 486 l4 -22 l-20 8 z" fill="#1e8e5a"/><text x="792" y="530" text-anchor="middle" font-family="'Segoe UI', system-ui, -apple-system, Helvetica, Arial, sans-serif" font-size="16" font-weight="700" fill="#51607a">retry, don’t churn</text>
</svg>